<?xml version="1.0" encoding="UTF-8"?>
<svg width="700pt" height="700pt" version="1.1" viewBox="0 0 700 700" xmlns="http://www.w3.org/2000/svg" xmlns:xlink="http://www.w3.org/1999/xlink">
 <g>
  <path fill="#000000" d="m333.2 341.6h-33.598c-6.1875 0-11.203-5.0156-11.203-11.203v-33.598c0.015624-2.9922 1.2227-5.8594 3.3633-7.9531l168.05-165.65c4.3672-4.3398 11.422-4.3398 15.793 0l31.922 31.922h-0.003906c4.3438 4.3672 4.3438 11.422 0 15.789l-166.38 167.39c-2.1055 2.1172-4.9688 3.3047-7.9531 3.3047zm-22.398-22.398h17.754l155.17-156.13-16.125-16.125-156.8 154.56z"/>
  <path fill="#000000" d="m439.6 403.2h-179.2c-8.9102 0-17.457-3.5391-23.758-9.8398s-9.8398-14.848-9.8398-23.758v-179.2c0-8.9102 3.5391-17.457 9.8398-23.758s14.848-9.8398 23.758-9.8398h89.602c6.1875 0 11.199 5.0117 11.199 11.199s-5.0117 11.199-11.199 11.199h-89.602c-6.1836 0-11.199 5.0156-11.199 11.199v179.2c0 2.9688 1.1797 5.8164 3.2812 7.918 2.1016 2.1016 4.9492 3.2812 7.918 3.2812h179.2c2.9688 0 5.8164-1.1797 7.918-3.2812 2.1016-2.1016 3.2812-4.9492 3.2812-7.918v-89.602c0-6.1875 5.0117-11.199 11.199-11.199s11.199 5.0117 11.199 11.199v89.602c0 8.9102-3.5391 17.457-9.8398 23.758s-14.848 9.8398-23.758 9.8398z"/>
 </g>
</svg>
